# Blender v2.78 (sub 0) OBJ File: '22.blend'
# www.blender.org
mtllib Textbook_01.mtl
g Textbook_01_Cube.043
v 0.200523 1.335505 2.522315
v -0.200523 1.335505 2.522315
v -0.200523 1.596461 2.522315
v 0.200523 1.596461 2.522315
v 0.200523 1.335505 3.910893
v -0.200523 1.335505 3.910893
v -0.200523 1.596461 3.910893
v 0.200523 1.596461 3.910893
v -0.694290 1.335505 3.417127
v -0.694290 1.335505 3.016081
v -0.694290 1.596461 3.016081
v -0.694290 1.596461 3.417127
v 0.694290 1.335505 3.016081
v 0.694290 1.335505 3.417127
v 0.694290 1.596461 3.417127
v 0.694290 1.596461 3.016081
v -0.200523 1.596461 3.417127
v 0.200523 1.596461 3.417127
v 0.200523 1.596461 3.016081
v -0.200523 1.596461 3.016081
v 0.200523 1.335505 3.417127
v -0.200523 1.335505 3.417127
v -0.200523 1.335505 3.016081
v 0.200523 1.335505 3.016081
v -0.694290 1.596461 0.099977
v -0.694290 1.596461 0.501022
v 0.694290 1.596461 0.501022
v 0.694290 1.596461 0.099977
v -0.200523 1.596461 0.501022
v 0.200523 1.596461 0.501022
v 0.200523 1.596461 0.099977
v -0.200523 1.596461 0.099977
v -0.200523 1.433033 0.099977
v -0.200523 1.433033 0.501022
v 0.200523 1.433033 0.501022
v 0.200523 1.433033 0.099977
v 0.694290 1.433033 0.501022
v 0.694290 1.433033 0.099977
v -0.694290 1.433033 0.099977
v -0.694290 1.433033 0.501022
v -0.694290 1.596461 -0.514750
v -0.694290 1.596461 -0.113704
v 0.694290 1.596461 -0.113704
v 0.694290 1.596461 -0.514750
v -0.200523 1.596461 -0.113704
v 0.200523 1.596461 -0.113704
v 0.200523 1.596461 -0.514750
v -0.200523 1.596461 -0.514750
v -0.200523 1.433033 -0.514750
v -0.200523 1.433033 -0.113704
v 0.200523 1.433033 -0.113704
v 0.200523 1.433033 -0.514750
v 0.694290 1.433033 -0.113704
v 0.694290 1.433033 -0.514750
v -0.694290 1.433033 -0.514750
v -0.694290 1.433033 -0.113704
v -0.694290 1.596461 -2.998239
v -0.694290 1.596461 -2.597193
v 0.694290 1.596461 -2.597193
v 0.694290 1.596461 -2.998239
v -0.200523 1.596461 -2.597193
v 0.200523 1.596461 -2.597193
v 0.200523 1.596461 -2.998239
v -0.200523 1.596461 -2.998239
v -0.200523 1.433033 -2.998239
v -0.200523 1.433033 -2.597193
v 0.200523 1.433033 -2.597193
v 0.200523 1.433033 -2.998239
v 0.694290 1.433033 -2.597193
v 0.694290 1.433033 -2.998239
v -0.694290 1.433033 -2.998239
v -0.694290 1.433033 -2.597193
v -5.000000 0.000358 -7.539058
v -5.000000 0.000358 7.862707
v -5.000000 1.576343 -7.539058
v -5.000000 1.576342 7.862707
v 5.000000 0.000358 -7.539058
v 5.000000 0.000358 7.862707
v 5.000000 1.576343 -7.539058
v 5.000000 1.576342 7.862707
v 5.347757 0.525686 -7.539058
v 5.347757 1.051015 -7.539058
v 5.347757 1.051014 7.862707
v 5.347757 0.525686 7.862707
v -5.007717 0.225685 -7.539058
v -5.007717 0.225684 7.862707
v -5.007717 1.351016 7.862707
v -5.007717 1.351016 -7.539058
v 4.835046 1.351016 -7.539058
v 4.835046 1.351016 7.862707
v 5.055604 0.975906 -7.539058
v 5.055604 0.600795 7.862707
v 4.835046 0.225684 7.862707
v 4.835046 0.225685 -7.539058
v 5.055604 0.600795 -7.539058
v 5.055604 0.975905 7.862707
v -4.645149 0.493187 -7.379229
v -4.887295 0.241489 -7.379229
v -4.887295 0.241489 7.702877
v -4.645149 1.083513 7.702877
v -4.887295 1.335211 7.702877
v -4.887295 1.335212 -7.379229
v 4.782205 1.335212 -7.379229
v 4.782205 1.335211 7.702877
v 4.996281 0.970637 -7.379229
v 4.996281 0.606063 7.702877
v 4.782205 0.241489 7.702877
v 4.782205 0.241489 -7.379229
v -4.645149 1.083513 -7.379229
v -4.645149 0.493187 7.702877
v 4.996281 0.606063 -7.379229
v 4.996281 0.970637 7.702877
v 5.347757 0.788350 -7.539058
v 5.347757 0.788350 7.862707
v 5.055604 0.788350 -7.539058
v 5.055604 0.788350 7.862707
v -4.541110 0.788350 -7.379229
v -4.541110 0.788350 7.702877
v 4.996281 0.788350 -7.379229
v 4.996281 0.788350 7.702877
v -4.757704 0.000358 -7.165880
v -4.757704 0.000358 7.489529
v -4.757704 1.576342 7.489529
v -4.757704 1.576343 -7.165880
v 4.757704 1.576343 -7.165880
v 4.757704 1.576342 7.489529
v 4.757704 0.000358 7.489529
v 4.757704 0.000358 -7.165880
v -4.588174 0.000358 -7.032416
v -4.588174 0.000358 7.356065
v -4.588174 1.576342 7.356065
v -4.588174 1.576343 -7.032416
v 4.588175 1.576343 -7.032416
v 4.588175 1.576342 7.356065
v 4.588175 0.000358 7.356065
v 4.588175 0.000358 -7.032416
vn -0.9994 -0.0342 -0.0000
vn 0.0000 -1.0000 0.0000
vn 0.8338 -0.5520 -0.0000
vn 0.0000 1.0000 0.0000
vn 0.0000 0.0000 1.0000
vn 0.0000 0.0000 -1.0000
vn 0.8338 0.5520 0.0000
vn 1.0000 0.0000 0.0000
vn -0.9994 0.0342 0.0000
vn 0.0000 -0.9951 -0.0984
vn -0.8173 0.4802 -0.3184
vn -0.8173 0.4802 0.3184
vn -0.9375 0.0000 0.3480
vn -0.1301 -0.9915 -0.0000
vn -0.8173 -0.4802 -0.3184
vn -0.8173 -0.4802 0.3184
vn 0.0000 0.9951 0.0984
vn 0.0000 -0.9951 0.0984
vn -0.1301 0.9915 0.0000
vn 0.0000 0.9951 -0.0984
vn -0.9375 0.0000 -0.3480
vn -1.0000 0.0000 0.0000
vn -0.7206 -0.6933 -0.0000
vn -0.7206 0.6933 0.0000
vn -0.9431 -0.3324 -0.0000
vn -0.9431 0.3324 0.0000
usemtl DD9944
s off
f 73//1 74//1 86//1 85//1
f 78//2 74//2 122//2 127//2
f 81//3 84//3 78//3 77//3
f 79//4 75//4 124//4 125//4
f 83//5 80//5 90//5 96//5
f 74//5 78//5 93//5 86//5
f 75//6 79//6 89//6 88//6
f 79//6 82//6 91//6 89//6
f 113//6 81//6 95//6 115//6
f 77//6 73//6 85//6 94//6
f 79//7 80//7 83//7 82//7
f 113//8 114//8 84//8 81//8
f 76//9 75//9 88//9 87//9
f 81//6 77//6 94//6 95//6
f 88//10 89//10 103//10 102//10
f 95//11 94//11 108//11 111//11
f 93//12 92//12 106//12 107//12
f 116//13 96//13 112//13 120//13
f 87//14 88//14 102//14 101//14
f 89//15 91//15 105//15 103//15
f 96//16 90//16 104//16 112//16
f 86//17 93//17 107//17 99//17
f 90//18 87//18 101//18 104//18
f 78//5 84//5 92//5 93//5
f 80//5 76//5 87//5 90//5
f 114//5 83//5 96//5 116//5
f 85//19 86//19 99//19 98//19
f 94//20 85//20 98//20 108//20
f 115//21 95//21 111//21 119//21
f 91//21 115//21 119//21 105//21
f 84//5 114//5 116//5 92//5
f 92//13 116//13 120//13 106//13
f 82//8 83//8 114//8 113//8
f 82//6 113//6 115//6 91//6
f 128//2 127//2 135//2 136//2
f 127//2 122//2 130//2 135//2
f 77//2 78//2 127//2 128//2
f 76//4 80//4 126//4 123//4
f 75//4 76//4 123//4 124//4
f 74//2 73//2 121//2 122//2
f 73//2 77//2 128//2 121//2
f 80//4 79//4 125//4 126//4
f 132//4 131//4 133//4
f 136//2 135//2 130//2 129//2
f 123//4 126//4 134//4 131//4
f 124//4 123//4 131//4 132//4
f 121//2 128//2 136//2 129//2
f 126//4 125//4 133//4 134//4
f 125//4 124//4 132//4 133//4
f 122//2 121//2 129//2 130//2
f 133//4 131//4 134//4
usemtl FFFFFF
f 17//4 18//4 19//4 20//4
f 21//2 22//2 23//2 24//2
f 17//4 7//4 8//4 18//4
f 21//2 5//2 6//2 22//2
f 7//5 6//5 5//5 8//5
f 4//6 1//6 2//6 3//6
f 3//4 20//4 19//4 4//4
f 1//2 24//2 23//2 2//2
f 22//2 9//2 10//2 23//2
f 18//4 15//4 16//4 19//4
f 12//4 17//4 20//4 11//4
f 14//2 21//2 24//2 13//2
f 15//8 14//8 13//8 16//8
f 11//22 10//22 9//22 12//22
f 1//8 4//8 19//8 24//8
f 16//6 13//6 24//6 19//6
f 2//22 23//22 20//22 3//22
f 10//6 11//6 20//6 23//6
f 22//5 17//5 12//5 9//5
f 17//22 22//22 6//22 7//22
f 8//8 5//8 21//8 18//8
f 18//5 21//5 14//5 15//5
f 29//4 30//4 31//4 32//4
f 30//4 27//4 28//4 31//4
f 26//4 29//4 32//4 25//4
f 34//2 33//2 36//2 35//2
f 35//2 36//2 38//2 37//2
f 40//2 39//2 33//2 34//2
f 27//8 37//8 38//8 28//8
f 31//6 36//6 33//6 32//6
f 29//5 34//5 35//5 30//5
f 26//5 40//5 34//5 29//5
f 28//6 38//6 36//6 31//6
f 30//5 35//5 37//5 27//5
f 32//6 33//6 39//6 25//6
f 25//22 39//22 40//22 26//22
f 45//4 46//4 47//4 48//4
f 46//4 43//4 44//4 47//4
f 42//4 45//4 48//4 41//4
f 50//2 49//2 52//2 51//2
f 51//2 52//2 54//2 53//2
f 56//2 55//2 49//2 50//2
f 43//8 53//8 54//8 44//8
f 47//6 52//6 49//6 48//6
f 45//5 50//5 51//5 46//5
f 42//5 56//5 50//5 45//5
f 44//6 54//6 52//6 47//6
f 46//5 51//5 53//5 43//5
f 48//6 49//6 55//6 41//6
f 41//22 55//22 56//22 42//22
f 61//4 62//4 63//4 64//4
f 62//4 59//4 60//4 63//4
f 58//4 61//4 64//4 57//4
f 66//2 65//2 68//2 67//2
f 67//2 68//2 70//2 69//2
f 72//2 71//2 65//2 66//2
f 59//8 69//8 70//8 60//8
f 63//6 68//6 65//6 64//6
f 61//5 66//5 67//5 62//5
f 58//5 72//5 66//5 61//5
f 60//6 70//6 68//6 63//6
f 62//5 67//5 69//5 59//5
f 64//6 65//6 71//6 57//6
f 57//22 71//22 72//22 58//22
f 109//23 100//23 101//23 102//23
f 97//6 111//6 108//6 98//6
f 106//5 110//5 99//5 107//5
f 104//5 101//5 100//5 112//5
f 120//5 118//5 110//5 106//5
f 102//6 103//6 105//6 109//6
f 117//6 119//6 111//6 97//6
f 98//24 99//24 110//24 97//24
f 117//25 118//25 100//25 109//25
f 97//26 110//26 118//26 117//26
f 109//6 105//6 119//6 117//6
f 112//5 100//5 118//5 120//5
